<?xml version="1.0" encoding="utf-8"?>
<!-- Generator: Adobe Illustrator 28.3.0, SVG Export Plug-In . SVG Version: 6.00 Build 0)  -->
<svg version="1.1" id="Layer_1" xmlns="http://www.w3.org/2000/svg" xmlns:xlink="http://www.w3.org/1999/xlink" x="0px" y="0px"
	 viewBox="0 0 3000 630.5" style="enable-background:new 0 0 3000 630.5;" xml:space="preserve">
<style type="text/css">
	.st0{fill:#D2C8B3;}
</style>
<g>
	<g>
		<path class="st0" d="M106.4,562.81l2.52-13.44l31.92-2.52c18.48-1.68,25.2-6.72,25.2-15.12V54.57h-3.36
			c-55.44,0-98.29,50.4-113.41,115.93l-5.88,26.88H24.08L40.04,37.77h346.95l8.4,158.77h-18.48l-5.04-26.04
			c-13.44-73.09-50.4-115.93-110.89-115.93h-4.2v477.16c0,8.4,6.72,13.44,25.2,15.12l31.92,2.52l2.52,13.44H106.4z"/>
		<path class="st0" d="M633.97,461.16c-26.04,73.09-64.69,113.41-126.85,113.41c-80.65,0-138.61-77.29-138.61-182.3
			c0-114.25,65.53-200.78,152.89-200.78c73.93,0,114.25,51.25,114.25,116.77c0,4.2-0.84,16.8-2.52,24.36l-173.9-1.68
			c-0.84,8.4-1.68,25.2-1.68,32.76c0,96.61,35.28,157.93,89.89,157.93c32.76,0,56.29-20.16,77.29-65.53L633.97,461.16z
			 M515.52,207.46c-26.88,0-50.4,44.52-55.44,108.37c14.28,0,80.65-0.84,94.93-0.84C555,257.86,543.24,207.46,515.52,207.46z"/>
		<path class="st0" d="M662.52,562.81l2.52-13.44l16.8-1.68c15.12-1.68,19.32-5.88,19.32-15.12V286.43c0-30.24-3.36-39.48-21-44.52
			l-17.64-5.04l1.68-10.08l118.45-34.44l-3.36,116.77h2.52c22.68-77.29,47.04-117.61,93.25-117.61c29.4,0,50.4,19.32,50.4,52.08
			c0,26.88-18.48,51.24-42,51.24s-43.68-18.48-48.72-47.88c-21,12.6-35.28,44.52-53.76,108.37l0.84,177.26
			c0,9.24,4.2,13.44,18.48,15.12l15.96,1.68l2.52,13.44H662.52z"/>
		<path class="st0" d="M941.41,562.81l2.52-13.44l16.8-1.68c15.12-1.68,19.32-5.88,19.32-15.12V286.43c0-30.24-3.36-39.48-21-44.52
			l-17.64-5.04l1.68-10.08l118.45-34.44l-3.36,116.77h2.52c22.68-77.29,47.04-117.61,93.25-117.61c29.4,0,50.4,19.32,50.4,52.08
			c0,26.88-18.48,51.24-42,51.24s-43.68-18.48-48.72-47.88c-21,12.6-35.28,44.52-53.76,108.37l0.84,177.26
			c0,9.24,4.2,13.44,18.48,15.12l15.96,1.68l2.52,13.44H941.41z"/>
		<path class="st0" d="M1515.18,512.41c-15.96,31.08-42,62.17-76.45,62.17c-28.56,0-47.88-19.32-53.76-57.12h-2.52
			c-21.84,35.28-52.92,57.12-86.53,57.12c-41.16,0-75.61-37.8-75.61-85.69c0-59.64,42.84-100.81,166.33-137.77l0.84-23.52
			c2.52-79.81-20.16-108.37-57.12-108.37c-23.52,0-47.88,13.44-47.88,21.84c0,5.88,22.68,22.68,22.68,47.04
			c0,21-16.8,40.32-41.16,40.32c-22.68,0-40.32-16.8-40.32-38.64c0-50.4,77.29-98.29,147.01-98.29
			c73.09,0,101.65,34.44,98.29,141.13l-5.88,155.41c-0.84,26.88,5.88,38.64,16.8,38.64c9.24,0,17.64-7.56,26.04-21.84
			L1515.18,512.41z M1386.65,367.91c-63.85,24.36-79.81,59.64-79.81,97.45c0,36.12,14.28,57.96,33.6,57.96
			c15.12,0,27.72-8.4,42-29.4L1386.65,367.91z"/>
	</g>
	<g>
		<path class="st0" d="M1570.21,38.73h79.64l101.69,340.62V38.73h63.29v524.08h-63.29L1633.5,168.86v393.95h-63.29V38.73z"/>
		<path class="st0" d="M1897.31,184.5c18.49-18.49,39.82-27.02,66.84-27.02c30.58,0,50.49,10.67,69.69,29.16
			c35.55,34.84,40.53,96.71,40.53,170.67c0,56.89-2.84,143.64-42.67,183.47c-10.67,10.67-31.29,28.44-67.55,28.44
			c-33.42,0-54.04-14.22-70.4-29.87c-38.4-39.11-39.11-113.78-39.11-170.67C1854.65,281.92,1858.91,222.19,1897.31,184.5z
			 M1965.58,207.26c-39.82,0-40.53,68.98-40.53,147.2c0,100.98,0.71,164.26,39.11,164.26c38.4,0,39.82-64.71,39.82-161.42
			C2003.98,276.24,2002.56,207.26,1965.58,207.26z"/>
		<path class="st0" d="M2110.64,164.59h57.6v79.64c29.16-61.87,50.49-83.2,84.62-83.2c32.71,0,54.75,24.89,64.71,71.82
			c23.47-51.2,44.8-71.82,77.51-71.82c43.38,0,68.98,42.67,68.98,114.49v287.29h-64.71V269.84c0-33.42-11.38-54.04-29.16-54.04
			c-27.02,0-50.49,39.82-50.49,86.04v260.98h-64.71V271.97c0-37.69-9.25-55.47-29.87-55.47c-27.73,0-49.78,43.38-49.78,96.71v249.6
			h-64.71V164.59z"/>
		<path class="st0" d="M2511.69,281.92c1.42-82.49,38.4-124.44,105.24-124.44c69.69,0,101.69,34.84,101.69,107.38V453.3
			c0,27.02,4.27,55.47,11.38,79.64c3.55,12.8,5.69,17.78,13.51,29.87h-64.71c-9.96-16.36-13.51-34.84-18.49-57.6
			c-24.89,43.38-48.36,61.87-80.36,61.87c-51.91,0-77.51-37.69-77.51-113.07c0-40.53,9.96-69.69,29.87-89.6
			c15.64-15.64,31.29-21.33,71.82-27.02c24.89-2.84,31.29-4.27,51.2-9.96v-68.98c0-31.29-14.93-49.78-39.11-49.78
			c-30.58,0-41.96,20.62-42.67,81.07L2511.69,281.92z M2654.62,375.08c-64.71,11.38-86.04,22.04-86.04,82.49
			c0,42.67,11.38,63.29,34.84,63.29c28.44,0,51.2-39.11,51.2-88.18V375.08z"/>
		<path class="st0" d="M2915.6,38.73h64.71v524.08h-50.49c0-24.18-3.56-54.04-7.11-68.27c-12.8,33.42-36.27,72.53-77.51,72.53
			c-24.18,0-36.27-9.96-46.22-19.91c-34.13-34.13-36.27-112.35-36.27-172.09c0-76.8,1.42-164.27,35.56-198.4
			c9.24-9.25,27.02-19.2,46.22-19.2c27.73,0,54.75,17.07,71.11,57.6V38.73z M2832.4,301.84v100.98c0,61.87,2.84,111.64,33.42,111.64
			c7.82,0,15.64-3.56,24.89-12.8c24.89-24.89,26.31-84.62,26.31-124.44c0-80.35,0-128-29.87-157.87
			c-5.69-5.69-14.93-13.51-24.89-13.51C2835.24,205.84,2832.4,247.08,2832.4,301.84z"/>
	</g>
</g>
</svg>
